<?xml version="1.0" encoding="UTF-8" standalone="no" ?>
<!DOCTYPE svg PUBLIC "-//W3C//DTD SVG 1.1//EN" "http://www.w3.org/Graphics/SVG/1.1/DTD/svg11.dtd">
<svg xmlns="http://www.w3.org/2000/svg" xmlns:xlink="http://www.w3.org/1999/xlink" version="1.1" width="204.42131979695435" height="170.30964467005072" viewBox="178.80456852791872 292.510152284264 204.42131979695435 170.30964467005072" xml:space="preserve">
<desc>Created with Fabric.js 5.3.0</desc>
<defs>
</defs>
<g transform="matrix(1 0 0 1 281.0152284264 377.6649746193)" id="KvHP6-QbTX6jGst2oGqEk"  >
<path style="stroke: rgb(255,255,255); stroke-width: 3; stroke-dasharray: none; stroke-linecap: butt; stroke-dashoffset: 0; stroke-linejoin: miter; stroke-miterlimit: 4; fill: rgb(255,255,255); fill-opacity: 0; fill-rule: nonzero; opacity: 1;"  transform=" translate(0, 0)" d="M -58.03958 -83.65482 C -62.963660000000004 -83.65482 -67.64892 -81.53287 -70.8968 -77.83181 L -95.61886 -49.660160000000005 L -95.61886 -49.660160000000005 C -98.90091 -45.92015000000001 -100.71067 -41.11410000000001 -100.71067 -36.13821 L -100.71067 71.89673 L -100.71067 71.89673 C -100.71067 78.39055 -95.44639 83.65482 -88.95258 83.65482 L 62.18333 83.65482 L 62.18333 83.65482 C 67.92119 83.65482 73.21292 80.55996 76.02597 75.55899 L 99.41181 33.984159999999996 L 99.41181 33.984159999999996 C 100.26333 32.470349999999996 100.71064 30.762749999999997 100.71064 29.025879999999994 L 100.71064 -73.92717999999999 L 100.71064 -73.92717999999999 C 100.71064 -79.29960999999999 96.35543 -83.65481999999999 90.983 -83.65481999999999 z" stroke-linecap="round" />
</g>
</svg>