<?xml version="1.0" encoding="UTF-8" standalone="no" ?>
<!DOCTYPE svg PUBLIC "-//W3C//DTD SVG 1.1//EN" "http://www.w3.org/Graphics/SVG/1.1/DTD/svg11.dtd">
<svg xmlns="http://www.w3.org/2000/svg" xmlns:xlink="http://www.w3.org/1999/xlink" version="1.1" width="145.18287102977973" height="125.02298191327228" viewBox="198.10708110975102 236.7308952870286 145.18287102977973 125.02298191327228" xml:space="preserve">
<desc>Created with Fabric.js 5.3.0</desc>
<defs>
</defs>
<g transform="matrix(0.929859783 0 0 0.8425009461 270.6985166246 299.2423862437)" id="jfDF2aMSvfLhXCmUFU9vi"  >
<path style="stroke: rgb(267,267,267); stroke-width: 4; stroke-dasharray: none; stroke-linecap: butt; stroke-dashoffset: 0; stroke-linejoin: miter; stroke-miterlimit: 4; fill: rgb(255,255,255); fill-opacity: 0; fill-rule: nonzero; opacity: 1;"  
transform=" translate(0, 0)" d="M -57 -66.29072 
C -56.836240000000004 -71.23903999999999 -57.658350000000006 -73.60405999999999 -50.986670000000004 -73.60405999999999 
L 51.96777999999999 -73.60405999999999 
L 51.96777999999999 -73.60405999999999 
C 54.36883999999999 -73.60405999999999 56.31527999999999 -71.45579 56.31527999999999 -68.80575999999999 
L 56.31527999999999 13.324880000000007 
L 64.17443999999999 48.88219000000001 
L 64.17443999999999 48.88219000000001 
C 64.75437 50.3712 63.61724999999998 52.08222 63.80953999999998 53.43578000000001 
C 63.00181999999998 54.78933 62.63169999999998 55.60408000000001 61.16321999999998 55.60408000000001 
L -70.01834000000001 55.60408000000001 
L -72.01834000000001 55.60408000000001 
C -73.14054000000002 55.60408000000001 -72.19514000000001 54.01202 -72.85599 53.01099 
C -72.51684 52.00996 -72.70432000000001 52.72059 -72.36045 51.54161 
L -56.07051 12.690380000000005 z" stroke-linecap="round" />
</g>
</svg>