<svg id="svg" version="1.1" width="800" height="800" xmlns="http://www.w3.org/2000/svg"><path d="M371.989 21.250 C 371.391 23.587,370.720 26.043,370.498 26.707 C 370.277 27.371,368.215 29.102,365.917 30.553 C 363.618 32.004,359.304 35.173,356.330 37.595 C 353.356 40.018,350.315 42.000,349.573 42.000 C 348.831 42.000,346.201 43.913,343.729 46.250 C 339.603 50.152,337.434 51.835,327.351 58.960 C 323.976 61.344,323.890 61.567,324.539 66.282 C 325.202 71.101,325.164 71.185,320.371 75.779 L 315.534 80.413 315.850 89.817 C 316.024 94.990,316.747 100.865,317.456 102.874 C 320.048 110.221,320.337 114.958,318.413 118.532 C 317.425 120.366,315.579 122.423,314.310 123.102 C 309.808 125.511,312.988 125.179,319.970 122.512 C 324.396 120.820,327.700 118.858,328.777 117.282 C 329.725 115.894,332.078 112.983,334.007 110.812 C 337.213 107.206,338.106 106.793,344.384 106.014 C 348.162 105.546,361.922 104.594,374.963 103.899 L 398.673 102.635 402.254 104.848 C 404.613 106.306,407.141 106.983,409.667 106.834 C 411.775 106.709,417.041 106.964,421.369 107.400 C 427.001 107.967,429.045 107.881,428.560 107.096 C 428.187 106.493,426.409 106.000,424.608 106.000 C 422.807 106.000,421.095 105.762,420.805 105.471 C 420.514 105.180,423.089 99.218,426.527 92.221 C 434.655 75.682,436.744 68.429,435.030 62.704 C 433.525 57.678,427.404 45.210,425.234 42.750 C 424.385 41.788,422.522 40.999,421.095 40.998 C 419.668 40.998,416.925 40.122,415.000 39.052 C 413.075 37.982,410.114 36.434,408.420 35.611 C 404.478 33.696,403.400 32.311,402.500 28.000 C 401.373 22.604,400.433 22.001,393.128 21.990 C 388.179 21.983,385.145 21.350,381.151 19.490 C 378.209 18.121,375.188 17.000,374.439 17.000 C 373.674 17.000,372.600 18.862,371.989 21.250 M385.818 27.539 C 388.668 28.385,391.000 29.510,391.000 30.039 C 391.000 30.567,391.713 31.000,392.585 31.000 C 393.457 31.000,395.595 32.624,397.335 34.609 C 402.627 40.645,411.443 46.958,413.740 46.358 C 416.589 45.613,421.084 51.505,422.787 58.216 C 425.293 68.094,425.308 68.766,423.107 72.326 C 421.948 74.202,421.000 76.433,421.000 77.285 C 421.000 78.136,420.663 78.983,420.250 79.167 C 419.837 79.350,418.038 81.203,416.250 83.285 C 413.986 85.921,413.000 88.084,413.000 90.412 C 413.000 96.188,410.075 97.145,397.622 95.445 C 394.939 95.078,384.814 95.530,375.122 96.448 C 362.522 97.643,355.426 97.867,350.222 97.237 C 342.684 96.323,337.000 96.654,337.000 98.005 C 337.000 98.433,335.106 99.541,332.792 100.467 C 328.979 101.992,328.475 102.003,327.436 100.581 C 326.805 99.718,325.983 95.343,325.609 90.859 C 324.999 83.553,325.135 82.485,326.917 80.589 C 329.830 77.487,331.894 71.898,331.291 68.744 C 330.530 64.763,331.712 63.622,346.862 53.701 C 348.710 52.491,352.085 49.894,354.362 47.932 C 356.638 45.969,360.075 43.311,362.000 42.023 C 363.925 40.736,366.950 38.328,368.722 36.672 C 370.918 34.620,373.043 33.625,375.397 33.547 C 377.297 33.484,378.633 33.785,378.366 34.216 C 378.100 34.647,378.997 35.000,380.359 35.000 C 381.722 35.000,383.452 35.236,384.204 35.525 C 385.083 35.862,385.571 35.327,385.571 34.025 C 385.571 32.911,384.993 32.000,384.286 32.000 C 382.767 32.000,379.000 28.437,379.000 27.000 C 379.000 25.671,379.722 25.728,385.818 27.539 M386.855 133.250 C 386.187 134.488,385.073 137.750,384.380 140.500 C 383.687 143.250,382.423 147.525,381.570 150.000 C 377.186 162.721,375.694 169.453,374.923 180.000 C 374.461 186.325,373.614 193.924,373.041 196.886 C 371.654 204.064,371.730 215.553,373.198 220.500 L 374.386 224.500 375.061 221.000 L 375.737 217.500 375.833 221.000 C 375.886 222.925,375.286 225.625,374.500 227.000 C 373.714 228.375,373.083 230.850,373.099 232.500 C 373.120 234.757,373.718 233.767,375.517 228.500 L 377.906 221.500 377.953 226.309 C 377.982 229.250,378.388 230.878,379.000 230.500 C 379.582 230.140,380.049 231.264,380.118 233.191 C 380.183 235.011,380.545 237.850,380.922 239.500 C 381.299 241.150,381.611 229.675,381.615 214.000 C 381.624 181.900,383.475 162.833,387.290 155.525 C 388.907 152.428,389.488 149.138,389.809 141.250 C 390.236 130.775,389.406 128.527,386.855 133.250 M486.000 136.561 C 487.375 138.110,489.625 140.369,491.000 141.582 C 495.639 145.674,522.481 172.974,524.750 175.908 C 527.085 178.926,527.739 183.425,526.000 184.500 C 524.061 185.698,525.031 187.072,527.615 186.788 C 529.395 186.592,530.583 187.139,531.335 188.500 C 531.943 189.600,533.466 192.178,534.720 194.229 C 535.974 196.279,537.000 198.579,537.000 199.339 C 537.000 200.099,538.146 202.410,539.548 204.475 C 543.236 209.911,545.997 217.823,546.011 223.000 C 546.027 228.826,548.399 237.679,550.595 240.105 C 552.018 241.677,552.116 242.450,551.159 244.551 C 550.521 245.950,550.000 249.071,550.000 251.488 C 550.000 253.905,549.585 256.139,549.077 256.452 C 548.569 256.766,547.871 258.311,547.525 259.886 C 547.168 261.511,545.226 264.091,543.033 265.854 C 540.711 267.719,538.692 270.463,537.975 272.729 C 537.318 274.803,534.978 280.313,532.774 284.973 C 530.570 289.633,528.444 295.824,528.050 298.732 C 527.625 301.859,526.493 304.932,525.277 306.259 C 524.146 307.491,522.055 310.829,520.631 313.676 C 519.206 316.523,516.844 320.123,515.382 321.676 C 513.920 323.229,511.620 326.975,510.271 330.000 C 508.922 333.025,506.397 336.861,504.659 338.524 C 502.922 340.187,500.778 342.922,499.895 344.602 C 498.029 348.153,491.169 353.608,492.311 350.633 C 492.872 349.169,492.606 348.988,490.744 349.569 C 489.510 349.954,488.169 350.771,487.765 351.385 C 487.005 352.538,486.551 357.066,486.859 360.417 C 487.058 362.581,483.344 367.000,481.326 367.000 C 480.597 367.000,480.000 367.900,480.000 369.000 C 480.000 374.224,488.037 369.220,491.824 361.638 C 493.359 358.565,495.429 356.325,498.146 354.798 C 500.367 353.549,503.386 350.739,504.855 348.552 C 506.787 345.676,508.476 344.382,510.964 343.874 C 516.363 342.769,519.135 338.000,514.378 338.000 C 512.040 338.000,511.904 337.816,513.128 336.308 C 514.060 335.158,514.099 334.857,513.250 335.367 C 512.387 335.886,512.000 335.366,512.000 333.688 C 512.000 332.151,513.492 329.835,516.063 327.379 C 518.298 325.246,520.862 322.150,521.760 320.500 C 523.334 317.611,523.512 317.072,523.848 314.191 C 523.931 313.471,524.437 313.152,524.971 313.482 C 526.048 314.148,527.501 309.619,526.651 308.244 C 526.355 307.766,527.888 305.434,530.057 303.061 C 532.226 300.688,534.005 298.017,534.011 297.124 C 534.051 291.075,542.428 273.752,547.578 269.065 C 550.362 266.532,551.000 265.221,551.000 262.033 C 551.000 258.900,553.193 253.308,555.691 250.073 C 556.271 249.322,558.935 253.438,558.968 255.136 C 558.986 256.035,558.328 258.060,557.506 259.636 C 556.685 261.211,555.965 263.400,555.906 264.500 C 555.819 266.162,555.665 266.077,555.000 264.000 C 554.405 262.142,554.174 263.105,554.100 267.750 C 554.045 271.188,554.383 274.000,554.852 274.000 C 555.321 274.000,556.203 270.993,556.812 267.318 C 557.928 260.580,560.701 256.079,562.899 257.438 C 564.205 258.245,564.291 273.332,563.028 280.000 C 562.559 282.475,561.393 286.525,560.436 289.000 C 559.291 291.962,558.603 296.978,558.424 303.674 C 558.275 309.269,557.668 314.752,557.076 315.858 C 556.484 316.964,556.000 318.823,556.000 319.991 C 556.000 321.158,554.691 323.325,553.091 324.806 C 549.915 327.748,538.890 349.814,540.194 350.620 C 540.637 350.894,541.000 350.390,541.000 349.500 C 541.000 348.610,541.352 348.100,541.782 348.366 C 542.213 348.631,543.572 347.379,544.803 345.582 C 546.034 343.786,548.198 341.697,549.612 340.940 C 551.025 340.184,553.793 337.075,555.762 334.032 C 557.731 330.990,560.681 327.060,562.318 325.300 C 565.079 322.333,565.303 321.520,565.398 314.133 C 565.455 309.751,565.808 305.858,566.184 305.483 C 567.388 304.279,569.000 306.040,569.000 308.559 C 569.000 311.249,570.461 311.847,571.353 309.523 C 571.665 308.710,571.520 303.448,571.032 297.829 C 570.478 291.448,570.512 285.526,571.123 282.056 C 571.660 279.000,572.496 274.220,572.980 271.434 C 574.114 264.901,572.617 252.907,569.991 247.482 C 568.880 245.186,566.680 239.769,565.103 235.443 C 563.526 231.118,561.733 227.411,561.118 227.206 C 559.509 226.670,559.771 235.610,561.507 240.487 C 563.173 245.163,562.354 246.465,558.637 245.052 C 555.548 243.878,555.725 244.312,553.558 232.594 C 552.413 226.405,552.230 223.370,552.956 222.644 C 553.530 222.070,554.000 220.323,554.000 218.762 C 554.000 215.202,540.246 188.392,534.628 181.000 C 532.328 177.975,529.228 173.700,527.737 171.500 C 521.275 161.961,497.410 141.020,486.500 135.314 L 483.500 133.746 486.000 136.561 M436.651 139.245 C 434.397 145.146,433.116 157.603,433.181 173.000 C 433.209 179.875,432.956 186.924,432.617 188.665 C 432.279 190.406,432.423 192.881,432.937 194.165 C 433.452 195.449,433.902 195.911,433.937 195.191 C 433.971 194.471,434.416 194.139,434.924 194.453 C 435.433 194.767,436.060 194.231,436.318 193.262 C 436.709 191.795,436.914 191.897,437.543 193.873 L 438.298 196.246 439.613 193.873 C 440.337 192.568,440.945 189.617,440.965 187.315 C 440.984 185.013,441.462 181.916,442.026 180.431 C 443.296 177.091,441.422 145.144,439.593 138.949 L 438.359 134.771 436.651 139.245 M472.952 153.449 C 474.218 154.796,475.005 156.544,474.702 157.334 C 474.399 158.124,474.805 159.704,475.604 160.846 C 476.404 161.987,477.119 164.555,477.194 166.552 C 477.309 169.606,477.938 170.567,481.146 172.592 C 483.244 173.916,485.419 175.000,485.980 175.000 C 488.038 175.000,486.917 170.670,484.000 167.347 C 482.141 165.230,481.000 162.827,481.000 161.028 C 481.000 158.973,479.905 157.089,477.250 154.572 C 472.924 150.471,469.254 149.513,472.952 153.449 M359.613 152.818 C 357.091 156.897,353.864 183.000,355.881 183.000 C 358.205 183.000,356.870 185.917,353.631 187.919 C 351.083 189.494,350.110 190.916,349.642 193.751 C 348.639 199.817,348.901 202.748,350.500 203.362 C 351.673 203.812,352.000 203.099,352.000 200.094 C 352.000 195.109,353.035 190.000,354.044 190.000 C 354.481 190.000,354.392 191.617,353.846 193.594 C 352.934 196.899,353.700 200.106,354.720 197.250 C 354.966 196.563,355.606 196.000,356.142 196.000 C 356.679 196.000,356.840 196.450,356.500 197.000 C 356.160 197.550,356.566 198.000,357.402 198.000 C 360.084 198.000,361.352 190.311,361.428 173.587 C 361.482 161.749,361.182 157.567,360.258 157.256 C 359.332 156.945,359.289 156.328,360.089 154.834 C 361.159 152.834,360.728 151.012,359.613 152.818 M307.784 159.022 C 304.948 163.192,303.219 174.364,302.028 196.213 C 301.407 207.605,300.686 217.955,300.425 219.213 C 300.163 220.471,299.561 224.473,299.086 228.107 C 298.612 231.741,297.737 235.622,297.144 236.732 C 296.550 237.841,296.076 243.087,296.090 248.389 C 296.116 257.869,297.515 264.925,300.505 270.657 C 301.320 272.221,301.995 274.400,302.003 275.500 C 302.011 276.600,303.125 279.750,304.478 282.500 C 305.831 285.250,306.952 289.132,306.969 291.128 C 306.986 293.123,307.649 295.294,308.442 295.952 C 309.235 296.610,310.023 298.578,310.192 300.324 C 310.438 302.864,310.972 303.524,312.855 303.619 C 315.142 303.734,315.199 303.544,314.807 297.119 C 314.502 292.133,313.509 288.636,310.781 282.946 C 308.789 278.791,306.668 272.716,306.068 269.446 C 305.468 266.176,304.313 261.025,303.500 258.000 C 301.632 251.043,301.616 245.498,303.442 238.235 C 304.234 235.081,305.393 224.850,306.015 215.500 C 306.638 206.150,307.811 193.100,308.621 186.500 C 309.432 179.900,309.961 170.450,309.798 165.500 C 309.505 156.646,309.472 156.541,307.784 159.022 M393.931 161.129 C 392.142 164.472,391.609 199.364,393.357 198.693 C 394.065 198.422,395.178 199.055,395.830 200.100 C 399.083 205.308,401.003 200.137,399.330 190.676 C 398.632 186.729,398.287 180.350,398.565 176.500 C 399.148 168.408,398.031 159.844,396.317 159.272 C 395.667 159.056,394.593 159.891,393.931 161.129 M492.582 168.909 C 490.940 170.723,490.949 170.849,492.746 171.419 C 493.787 171.750,495.634 173.366,496.849 175.010 L 499.060 178.000 495.780 178.178 C 493.976 178.276,491.600 178.299,490.500 178.230 C 487.534 178.041,484.000 178.923,484.000 179.851 C 484.000 181.188,490.906 182.961,491.619 181.808 C 492.175 180.908,510.476 181.436,516.070 182.513 C 517.108 182.713,518.261 182.386,518.632 181.787 C 519.537 180.322,516.203 178.000,513.193 178.000 C 508.043 178.000,501.560 174.790,498.760 170.853 C 495.636 166.462,494.983 166.256,492.582 168.909 M317.952 169.557 C 317.013 170.690,316.571 176.764,316.336 191.807 C 316.157 203.188,315.506 216.255,314.889 220.844 C 313.587 230.525,314.833 238.892,318.562 245.500 C 320.948 249.729,324.412 261.468,325.498 269.000 C 326.542 276.249,326.977 277.264,328.495 276.004 C 330.203 274.586,330.621 275.382,331.469 281.675 C 331.896 284.842,332.747 287.073,333.663 287.424 C 334.938 287.914,335.061 287.003,334.493 281.249 C 334.127 277.537,333.018 271.800,332.028 268.500 C 329.741 260.871,328.209 255.079,326.447 247.401 C 325.678 244.047,324.025 239.094,322.774 236.393 C 321.245 233.092,320.551 229.849,320.657 226.492 C 321.460 200.951,321.092 168.000,320.003 168.000 C 319.586 168.000,318.663 168.701,317.952 169.557 M409.782 177.579 C 408.688 179.422,408.048 184.672,407.964 192.500 C 407.884 199.888,408.112 202.065,409.690 209.000 L 410.259 211.500 410.953 209.000 C 412.872 202.078,411.831 174.131,409.782 177.579 M264.908 180.613 C 263.797 181.952,263.490 186.866,263.451 203.905 C 263.424 215.782,262.779 232.250,262.017 240.500 C 261.255 248.750,260.602 260.000,260.566 265.500 C 260.510 274.023,260.827 276.091,262.711 279.500 C 263.927 281.700,265.401 285.388,265.985 287.696 C 266.575 290.025,268.144 292.754,269.509 293.829 C 270.863 294.893,272.856 297.730,273.940 300.132 C 276.213 305.174,278.291 308.000,279.724 308.000 C 281.407 308.000,279.132 298.051,275.933 291.421 C 274.320 288.078,273.000 284.808,273.000 284.156 C 273.000 283.503,271.360 280.499,269.356 277.481 C 265.789 272.108,265.727 271.849,266.428 265.246 C 266.821 261.536,267.362 255.350,267.629 251.500 C 267.897 247.650,268.450 240.237,268.860 235.026 C 269.269 229.815,269.288 223.219,268.901 220.369 C 268.514 217.518,267.912 210.307,267.562 204.343 C 267.213 198.379,266.689 192.292,266.398 190.815 C 266.108 189.339,266.340 186.428,266.915 184.346 C 268.097 180.065,267.021 178.064,264.908 180.613 M223.615 188.045 C 219.543 192.885,216.363 198.943,214.563 205.289 C 213.660 208.474,212.151 211.849,211.211 212.789 C 210.001 213.999,209.591 215.761,209.810 218.810 C 209.981 221.181,209.457 225.231,208.645 227.810 C 204.932 239.605,204.742 244.570,207.449 259.000 C 208.841 266.425,209.985 275.061,209.990 278.191 C 209.996 281.321,210.420 284.141,210.933 284.458 C 211.446 284.775,212.370 287.467,212.988 290.441 C 214.231 296.427,216.526 299.374,218.049 296.936 C 219.011 295.395,218.480 287.612,216.861 279.500 C 216.312 276.750,215.505 271.055,215.067 266.845 C 214.620 262.551,213.319 257.224,212.102 254.710 C 208.407 247.078,208.345 241.733,211.833 231.483 C 215.174 221.667,216.577 216.637,218.526 207.500 C 219.230 204.200,221.430 197.943,223.416 193.596 C 225.402 189.249,226.851 185.518,226.638 185.304 C 226.424 185.090,225.064 186.324,223.615 188.045 M438.533 197.557 C 436.302 199.624,435.888 200.689,436.371 203.107 C 436.741 204.957,436.594 205.867,435.985 205.491 C 435.443 205.156,434.993 203.896,434.985 202.691 C 434.976 201.486,434.533 199.825,434.000 199.000 C 433.299 197.915,433.026 198.815,433.015 202.250 C 433.007 204.863,433.450 207.000,434.000 207.000 C 435.473 207.000,435.216 212.135,433.500 217.000 C 431.783 221.867,431.402 240.513,433.000 241.500 C 433.551 241.841,434.030 241.081,434.067 239.809 C 434.575 222.266,435.165 217.495,437.043 215.746 C 438.119 214.743,439.020 213.602,439.044 213.211 C 439.068 212.820,439.454 210.604,439.903 208.286 C 440.434 205.543,440.354 203.951,439.675 203.725 C 439.010 203.503,439.240 201.859,440.308 199.189 C 441.230 196.885,441.828 195.000,441.638 195.000 C 441.448 195.000,440.050 196.151,438.533 197.557 M199.306 214.304 C 193.370 221.064,192.421 223.753,192.530 233.500 C 192.652 244.438,193.909 255.175,194.988 254.507 C 195.424 254.238,196.075 255.589,196.436 257.509 C 196.796 259.429,197.588 261.000,198.196 261.000 C 198.987 261.000,199.056 258.224,198.440 251.250 C 196.725 231.854,197.094 227.267,201.001 219.477 C 202.925 215.640,204.650 212.162,204.833 211.750 C 205.785 209.609,201.820 211.441,199.306 214.304 M226.000 229.800 C 226.000 230.240,226.545 231.145,227.211 231.811 C 227.990 232.590,228.330 235.605,228.162 240.261 C 227.978 245.404,228.496 249.348,229.951 253.880 C 231.188 257.731,232.000 262.949,232.000 267.042 C 232.000 270.772,232.734 277.351,233.632 281.662 C 234.679 286.691,235.185 293.353,235.043 300.250 C 234.922 306.163,235.111 311.000,235.463 311.000 C 235.816 311.000,236.582 309.630,237.166 307.955 C 238.960 302.808,239.765 303.675,246.488 318.000 L 250.008 325.500 249.601 320.500 C 249.378 317.750,247.790 311.450,246.072 306.500 C 244.354 301.550,242.514 294.575,241.983 291.000 C 241.453 287.425,240.395 282.475,239.634 280.000 C 238.872 277.525,237.935 270.325,237.551 264.000 C 236.759 250.960,234.091 239.888,230.181 233.415 C 227.720 229.340,226.000 227.853,226.000 229.800 M515.081 248.750 C 516.491 254.820,516.135 259.755,514.000 263.739 C 512.900 265.791,512.000 268.471,512.000 269.695 C 512.000 270.918,510.900 272.950,509.556 274.210 C 506.640 276.943,505.000 280.950,505.000 285.343 C 505.000 287.109,504.306 289.545,503.459 290.755 C 502.611 291.965,501.299 294.878,500.543 297.228 C 498.588 303.308,494.574 312.603,493.179 314.284 C 492.527 315.070,491.610 317.764,491.142 320.271 C 490.673 322.778,488.987 326.925,487.395 329.486 C 482.312 337.661,481.003 340.439,481.002 343.050 C 481.001 344.452,480.468 346.132,479.817 346.783 C 479.166 347.434,478.979 348.312,479.402 348.733 C 480.415 349.744,485.000 344.374,485.000 342.176 C 485.000 341.235,486.067 338.894,487.371 336.975 C 488.675 335.056,490.058 331.614,490.445 329.327 C 491.004 326.015,491.901 324.669,494.850 322.718 C 497.888 320.708,498.791 319.299,499.873 314.884 C 500.598 311.923,502.434 307.700,503.952 305.500 C 507.374 300.541,510.145 292.307,510.460 286.160 C 510.807 279.394,510.736 279.607,514.000 275.500 C 515.650 273.424,517.000 270.813,517.000 269.698 C 517.000 268.583,518.511 264.483,520.358 260.586 C 524.026 252.847,526.339 245.964,523.328 251.750 C 522.398 253.537,521.080 255.000,520.399 255.000 C 519.718 255.000,518.413 252.750,517.500 250.000 C 515.564 244.171,513.807 243.263,515.081 248.750 M334.435 292.335 C 334.042 293.344,334.011 297.598,334.365 301.787 C 334.853 307.560,335.609 310.272,337.489 312.984 C 338.853 314.952,341.139 319.924,342.569 324.031 C 344.186 328.678,346.328 332.633,348.238 334.500 C 349.926 336.150,352.081 338.762,353.026 340.304 C 354.430 342.596,354.858 342.811,355.369 341.482 C 356.162 339.414,352.170 330.000,350.499 330.000 C 348.370 330.000,346.967 327.438,346.039 321.855 C 345.189 316.742,343.823 313.124,340.239 306.500 C 339.346 304.850,338.691 301.623,338.783 299.330 C 338.895 296.522,338.329 294.398,337.049 292.830 C 335.280 290.661,335.099 290.627,334.435 292.335 M205.830 301.750 C 205.394 313.960,207.791 323.023,212.693 327.702 C 213.962 328.913,215.000 330.531,215.000 331.297 C 215.000 332.063,215.876 333.483,216.946 334.451 C 218.026 335.428,219.027 337.834,219.196 339.856 C 219.376 342.018,219.986 343.406,220.695 343.268 C 221.929 343.029,226.050 348.133,226.367 350.293 C 226.465 350.964,227.323 352.623,228.273 353.979 C 229.562 355.820,230.000 356.023,230.000 354.782 C 230.000 353.867,229.550 352.840,229.000 352.500 C 228.450 352.160,228.000 350.290,228.000 348.345 C 228.000 346.306,227.070 343.503,225.803 341.724 C 224.595 340.027,224.187 338.998,224.896 339.436 C 225.905 340.059,225.891 339.717,224.833 337.866 C 220.582 330.430,217.321 326.059,216.000 326.024 C 214.378 325.981,212.000 321.701,212.000 318.825 C 212.000 317.332,212.408 317.205,214.565 318.025 C 219.486 319.896,219.249 318.756,213.000 310.500 C 209.245 305.538,208.000 303.036,208.000 300.447 C 208.000 295.165,206.023 296.352,205.830 301.750 M315.639 307.694 C 315.288 308.046,315.000 309.608,315.000 311.167 C 315.000 312.725,314.550 314.000,314.000 314.000 C 313.450 314.000,313.000 316.556,313.000 319.680 C 313.000 324.994,313.398 325.945,319.173 334.430 C 324.705 342.557,325.392 344.124,325.786 349.500 C 326.230 355.565,327.588 358.215,333.547 364.645 C 335.992 367.284,335.990 369.000,333.540 369.000 C 332.802 369.000,329.566 367.030,326.349 364.622 C 323.132 362.214,319.072 359.936,317.326 359.559 C 313.213 358.672,303.432 351.821,299.116 346.803 C 296.958 344.294,295.384 343.216,294.773 343.827 C 293.529 345.071,295.250 348.339,299.861 353.493 C 305.256 359.523,301.581 359.272,293.581 353.063 C 289.993 350.278,286.482 347.997,285.779 347.994 C 283.385 347.981,275.253 340.069,273.224 335.777 C 272.112 333.425,270.031 330.409,268.601 329.076 L 266.000 326.651 266.000 329.418 C 266.000 330.940,266.900 333.329,268.000 334.727 C 269.100 336.126,270.000 338.543,270.000 340.100 C 270.000 341.838,270.719 343.315,271.865 343.928 C 272.891 344.477,276.899 347.530,280.772 350.713 C 293.020 360.778,299.899 366.000,300.908 366.000 C 301.446 366.000,302.566 365.030,303.396 363.845 L 304.905 361.690 312.203 364.908 C 316.216 366.678,322.043 369.673,325.151 371.563 C 331.991 375.724,339.193 376.377,341.000 373.000 C 342.921 369.411,346.462 370.512,350.335 375.903 C 353.504 380.315,355.340 381.535,368.678 388.099 C 376.830 392.110,385.558 396.826,388.073 398.579 C 397.466 405.124,398.474 405.404,407.572 403.989 C 412.065 403.290,416.864 403.000,418.238 403.345 C 422.881 404.510,428.864 413.850,432.085 424.963 C 433.688 430.495,435.000 435.585,435.000 436.275 C 435.000 436.965,435.856 439.127,436.902 441.079 C 437.949 443.031,439.798 447.974,441.013 452.064 C 442.228 456.154,443.902 460.823,444.735 462.440 C 446.175 465.238,446.315 465.290,447.624 463.499 C 449.539 460.880,449.371 459.258,446.435 452.031 C 445.024 448.559,443.711 444.468,443.518 442.939 C 443.324 441.411,442.174 437.441,440.962 434.116 C 439.750 430.792,439.026 427.374,439.354 426.520 C 440.310 424.028,435.005 408.991,432.358 406.689 C 430.923 405.442,430.000 403.536,430.000 401.820 C 430.000 400.269,429.456 399.000,428.792 399.000 C 428.128 399.000,425.905 397.361,423.854 395.357 L 420.123 391.714 416.534 393.417 C 408.337 397.306,395.131 397.427,396.600 393.600 C 397.185 392.075,392.489 389.000,389.574 389.000 C 387.086 389.000,370.748 380.094,367.482 376.956 C 365.822 375.362,362.897 373.531,360.982 372.887 C 356.766 371.470,354.258 369.399,352.395 365.797 C 350.356 361.853,344.365 360.831,341.807 363.990 L 339.963 366.268 337.455 363.384 C 336.077 361.798,334.710 359.375,334.418 358.000 C 332.778 350.276,331.431 346.441,329.204 343.162 C 326.008 338.455,323.002 331.439,322.994 328.667 C 322.990 327.475,322.322 325.223,321.508 323.663 C 320.694 322.102,319.525 317.938,318.911 314.408 C 317.824 308.168,316.953 306.380,315.639 307.694 M243.450 326.345 C 243.076 327.835,243.593 330.258,244.792 332.634 C 245.865 334.760,247.075 337.625,247.480 339.000 C 247.886 340.375,249.693 343.075,251.497 345.000 C 253.301 346.925,255.925 350.695,257.328 353.378 C 259.685 357.885,259.762 358.433,258.350 360.589 C 257.509 361.872,255.961 363.195,254.911 363.528 C 252.389 364.329,252.455 364.763,256.208 372.095 C 258.419 376.416,259.374 379.625,259.282 382.431 C 259.209 384.669,259.129 389.130,259.105 392.343 C 259.056 398.766,257.327 399.763,255.506 394.418 C 254.448 391.316,252.564 389.412,249.817 388.674 C 248.463 388.311,248.291 388.641,248.935 390.361 C 249.375 391.538,249.994 394.975,250.309 398.000 C 251.161 406.162,250.066 407.155,240.542 406.851 C 232.641 406.598,232.153 406.391,231.502 403.012 C 231.080 400.818,224.537 390.397,222.060 387.973 C 221.202 387.133,219.106 385.464,217.403 384.264 C 213.350 381.408,205.644 371.385,206.472 370.045 C 207.466 368.437,209.787 368.805,210.920 370.750 C 211.834 372.319,211.942 372.271,211.970 370.285 C 211.986 369.067,211.109 367.593,210.019 367.010 C 207.474 365.648,203.000 359.082,203.000 356.709 C 203.000 355.704,203.419 355.141,203.931 355.457 C 204.443 355.774,205.157 355.554,205.518 354.970 C 205.880 354.386,207.541 354.123,209.210 354.386 L 212.244 354.864 209.622 352.127 C 206.414 348.779,206.341 347.623,209.250 346.220 C 211.214 345.273,210.890 345.127,206.700 345.068 C 204.061 345.030,200.662 344.360,199.148 343.577 C 195.221 341.546,188.000 333.414,188.000 331.022 C 188.000 328.221,186.169 328.480,185.440 331.385 C 184.736 334.187,188.103 350.323,190.889 357.500 C 195.299 368.863,199.289 376.601,202.789 380.582 C 213.018 392.216,218.741 399.911,221.705 406.017 C 224.076 410.902,227.995 423.692,228.610 428.552 C 228.954 431.273,230.083 434.988,231.118 436.807 C 233.417 440.847,233.524 443.585,231.414 444.395 C 230.294 444.825,229.895 446.103,230.054 448.752 C 230.392 454.371,230.109 456.185,229.000 455.500 C 227.543 454.599,227.753 455.464,230.073 459.915 C 231.292 462.255,232.265 466.280,232.437 469.696 C 232.862 478.155,234.056 484.032,236.152 487.985 C 237.255 490.065,238.000 493.535,238.000 496.589 C 238.000 500.663,238.510 502.259,240.500 504.405 C 241.875 505.889,243.000 507.948,243.000 508.982 C 243.000 510.620,242.590 510.743,239.797 509.942 C 234.378 508.388,234.586 508.803,228.004 486.407 C 225.978 479.512,223.591 474.433,220.998 471.500 C 220.026 470.400,218.923 468.488,218.548 467.250 C 218.172 466.012,217.472 465.000,216.992 465.000 C 214.968 465.000,214.987 467.405,217.056 473.269 C 219.136 479.167,219.249 481.051,219.158 508.500 C 219.106 524.450,218.523 542.988,217.864 549.697 C 216.896 559.559,216.913 562.190,217.956 563.447 C 220.772 566.840,220.730 567.020,222.945 542.000 C 223.554 535.125,224.290 528.423,224.581 527.106 L 225.110 524.712 226.578 526.808 C 227.725 528.446,228.138 533.676,228.466 550.702 C 228.696 562.691,228.911 573.057,228.942 573.737 C 228.974 574.418,230.800 576.111,233.000 577.500 C 236.181 579.508,237.000 580.625,237.000 582.954 C 237.000 584.564,236.616 586.119,236.148 586.409 C 235.679 586.698,235.033 590.066,234.712 593.893 C 233.614 606.990,232.524 607.784,207.500 613.706 C 203.511 614.650,190.942 615.409,170.000 615.972 C 137.449 616.845,121.311 618.719,114.064 622.467 C 110.716 624.198,103.442 624.524,102.491 622.986 C 101.721 621.740,95.322 618.317,88.078 615.275 C 85.095 614.022,81.914 612.327,81.008 611.507 C 78.836 609.541,68.443 606.000,64.846 606.000 C 62.996 606.000,60.633 607.240,58.068 609.558 C 53.821 613.394,53.723 613.769,52.481 630.774 C 51.821 639.804,53.632 651.551,55.450 650.041 C 56.129 649.478,56.951 649.284,57.276 649.610 C 58.530 650.864,60.223 641.134,60.080 633.489 C 59.972 627.722,60.351 624.921,61.433 623.489 C 62.866 621.593,62.941 621.664,63.038 625.000 C 63.154 628.960,64.804 633.925,64.930 630.691 C 64.968 629.696,65.450 629.160,66.000 629.500 C 67.529 630.445,67.154 622.787,65.569 620.697 C 64.546 619.348,64.071 619.222,63.680 620.197 C 63.393 620.914,63.122 620.093,63.079 618.372 C 62.932 612.559,67.323 611.963,73.647 616.937 C 74.974 617.980,77.958 619.145,80.279 619.526 C 82.601 619.906,85.175 620.799,86.000 621.509 C 86.825 622.219,89.975 624.306,93.000 626.147 C 98.317 629.383,98.849 629.494,109.000 629.488 C 118.024 629.482,120.076 629.163,123.598 627.219 C 127.134 625.267,129.939 624.837,144.098 624.081 C 153.119 623.600,163.425 622.500,167.000 621.638 C 171.445 620.566,178.559 620.054,189.500 620.020 C 199.230 619.989,207.742 619.441,211.221 618.622 C 214.368 617.882,217.180 617.514,217.471 617.805 C 218.597 618.931,217.925 638.215,216.500 645.662 C 214.722 654.954,214.720 655.000,216.000 655.000 C 216.550 655.000,217.000 654.187,217.000 653.194 C 217.000 652.201,218.062 649.950,219.359 648.191 C 222.472 643.972,224.312 632.929,223.857 621.201 C 223.655 615.999,223.900 611.999,224.421 611.999 C 224.928 612.000,226.128 611.289,227.088 610.420 C 228.429 609.206,229.296 609.088,230.830 609.909 C 234.528 611.888,235.160 632.956,231.638 636.847 C 230.760 637.818,229.381 642.058,228.576 646.269 C 227.770 650.479,226.698 654.729,226.193 655.712 C 225.689 656.695,224.989 660.375,224.639 663.889 C 224.288 667.403,223.105 672.128,222.010 674.389 C 220.915 676.650,219.576 680.300,219.035 682.500 C 218.495 684.700,217.335 689.425,216.458 693.000 C 215.581 696.575,213.995 701.300,212.933 703.500 C 211.025 707.452,209.217 712.290,206.418 720.940 C 205.628 723.381,204.320 726.390,203.510 727.624 C 202.701 728.859,201.612 731.586,201.089 733.685 C 200.566 735.783,199.469 739.311,198.652 741.523 C 196.931 746.183,196.800 748.955,196.915 778.250 L 197.000 800.000 199.579 800.000 C 201.869 800.000,202.093 799.691,201.573 797.250 C 200.474 792.093,200.152 758.522,201.132 751.243 C 201.846 745.937,202.736 743.308,204.445 741.465 C 205.730 740.078,207.024 737.719,207.320 736.222 C 209.380 725.815,211.461 719.088,213.884 715.000 C 215.893 711.612,218.951 703.156,220.033 698.000 C 220.668 694.975,222.014 691.323,223.024 689.884 C 224.951 687.140,228.286 674.355,229.515 665.000 C 229.913 661.975,231.084 657.830,232.119 655.790 C 233.153 653.749,234.000 651.362,234.000 650.485 C 234.000 649.608,234.979 646.777,236.175 644.195 C 238.117 640.004,238.360 637.722,238.443 622.928 C 238.518 609.532,238.843 605.889,240.137 603.914 C 241.017 602.570,242.057 600.015,242.448 598.235 C 242.839 596.456,243.765 595.000,244.507 595.000 C 245.819 595.000,249.494 598.983,250.237 601.210 C 250.483 601.948,251.170 602.004,252.290 601.377 C 253.792 600.537,253.586 599.858,250.375 595.090 C 248.289 591.993,246.554 588.012,246.248 585.623 C 245.650 580.938,242.952 575.035,240.469 572.974 C 239.546 572.209,238.375 570.487,237.867 569.149 C 237.167 567.308,236.503 540.920,236.940 532.321 C 236.973 531.673,237.740 530.402,238.645 529.498 C 239.974 528.169,240.452 528.107,241.130 529.176 C 241.592 529.904,241.986 531.400,242.007 532.500 C 242.046 534.629,244.746 540.560,247.924 545.500 C 248.985 547.150,249.903 549.850,249.962 551.500 C 250.056 554.086,252.867 560.852,252.965 558.724 C 252.984 558.298,254.342 558.643,255.983 559.491 C 259.222 561.166,261.873 565.512,261.268 568.157 C 261.060 569.068,261.364 570.107,261.945 570.466 C 262.525 570.825,263.000 572.040,263.000 573.166 C 263.000 574.614,263.459 575.038,264.565 574.613 C 265.782 574.146,265.984 574.476,265.470 576.093 C 265.013 577.535,265.472 578.791,266.964 580.181 L 269.117 582.187 268.809 577.344 C 268.619 574.373,268.056 572.584,267.351 572.716 C 266.632 572.852,266.257 571.545,266.351 569.229 C 266.542 564.487,269.598 563.362,270.548 567.684 C 271.559 572.283,271.886 573.000,272.969 573.000 C 274.496 573.000,274.220 568.591,272.410 564.067 C 270.792 560.024,264.279 553.848,260.311 552.595 C 258.640 552.067,257.826 550.581,256.871 546.313 C 256.182 543.237,253.903 538.065,251.805 534.819 C 247.123 527.575,246.086 523.198,246.033 510.435 C 246.000 502.525,245.370 498.258,242.944 489.500 C 238.244 472.533,238.258 472.627,237.615 453.212 C 237.063 436.570,237.188 434.414,239.004 429.247 C 240.102 426.124,241.000 421.731,241.000 419.485 C 241.000 413.730,242.260 412.822,247.533 414.776 C 253.030 416.813,253.818 416.183,257.544 406.764 C 259.125 402.769,261.455 398.099,262.723 396.387 C 266.356 391.481,268.415 384.454,267.169 381.214 C 266.595 379.721,265.833 377.023,265.476 375.217 C 265.119 373.411,263.516 370.498,261.913 368.744 C 258.378 364.873,258.205 363.000,261.383 363.000 C 262.927 363.000,263.951 363.706,264.291 365.004 C 264.628 366.292,265.356 366.800,266.330 366.427 C 268.705 365.516,269.081 363.256,267.531 359.220 C 266.745 357.174,265.590 353.475,264.964 351.000 C 264.339 348.525,262.640 345.245,261.189 343.711 C 259.738 342.177,257.189 338.226,255.525 334.930 C 253.286 330.496,251.403 328.287,248.279 326.430 L 244.058 323.921 243.450 326.345 M575.988 333.514 C 575.161 334.511,574.941 336.556,575.345 339.503 C 575.683 341.964,575.561 344.996,575.075 346.239 C 574.015 348.952,565.161 356.496,564.186 355.516 C 563.809 355.137,563.600 352.184,563.721 348.954 C 563.843 345.725,563.554 342.842,563.078 342.548 C 562.602 342.254,560.649 342.667,558.737 343.465 C 555.855 344.670,555.341 345.332,555.726 347.347 C 556.261 350.144,554.358 354.339,552.950 353.469 C 552.427 353.146,552.000 353.367,552.000 353.960 C 552.000 354.611,552.991 354.789,554.500 354.411 C 556.644 353.872,556.994 354.119,556.956 356.142 C 556.888 359.820,554.657 365.235,550.360 372.152 C 545.274 380.339,543.342 385.045,541.907 392.743 C 541.152 396.790,539.887 399.909,538.310 401.610 L 535.878 404.234 533.439 401.943 C 532.098 400.683,531.000 399.055,531.000 398.326 C 531.000 396.203,529.368 396.789,527.549 399.566 C 525.886 402.104,525.915 402.175,530.323 406.316 C 532.773 408.617,536.058 411.463,537.623 412.639 L 540.469 414.778 541.174 431.139 C 541.933 448.766,541.369 461.302,539.673 464.500 C 538.477 466.754,538.270 469.890,537.596 496.000 C 537.334 506.175,537.092 514.828,537.059 515.230 C 537.027 515.631,535.200 516.878,533.000 518.000 C 529.746 519.660,529.019 520.549,529.100 522.770 C 529.210 525.792,530.742 531.262,530.900 529.199 C 531.081 526.846,538.365 521.010,541.128 521.005 C 544.906 520.998,546.240 518.816,545.843 513.285 C 545.511 508.655,545.590 508.497,548.283 508.399 C 549.813 508.343,551.328 508.722,551.649 509.242 C 552.582 510.751,552.217 518.033,551.144 519.326 C 549.948 520.768,549.570 532.817,550.525 539.086 C 550.981 542.081,550.619 546.717,549.482 552.447 C 548.043 559.698,547.973 561.365,549.076 562.047 C 550.021 562.631,551.083 561.691,552.706 558.834 C 553.968 556.613,555.000 554.392,555.000 553.898 C 555.000 553.404,555.647 553.000,556.439 553.000 C 558.003 553.000,558.246 554.403,559.817 572.500 C 560.965 585.719,560.265 588.058,554.748 589.424 C 552.695 589.933,550.766 590.099,550.461 589.794 C 550.156 589.489,549.890 584.714,549.871 579.183 C 549.836 569.424,549.773 569.148,547.755 569.895 C 546.183 570.476,545.575 571.741,545.264 575.072 C 545.039 577.496,544.666 579.668,544.436 579.898 C 544.206 580.128,544.503 580.901,545.097 581.617 C 545.922 582.611,545.600 583.062,543.731 583.531 C 541.516 584.087,541.286 584.652,541.286 589.530 C 541.286 592.670,540.650 595.885,539.762 597.241 C 536.567 602.116,536.451 620.000,539.614 620.000 C 540.662 620.000,541.000 618.310,541.000 613.065 C 541.000 604.926,542.081 601.473,544.859 600.747 C 547.171 600.143,547.567 600.881,548.551 607.622 C 548.942 610.305,550.104 614.170,551.131 616.210 C 552.159 618.251,553.008 621.401,553.018 623.210 C 553.028 625.020,554.339 628.862,555.930 631.749 C 558.379 636.190,558.595 637.127,557.334 637.833 C 556.115 638.515,556.313 638.975,558.422 640.357 C 559.840 641.286,561.000 641.741,561.000 641.368 C 561.000 640.995,561.855 641.464,562.901 642.410 C 565.188 644.480,566.334 643.179,565.422 639.546 C 564.403 635.486,568.481 636.245,573.235 641.000 C 575.435 643.200,578.078 645.000,579.107 645.000 C 580.910 645.000,589.028 647.858,599.500 652.179 C 602.250 653.314,606.862 655.065,609.749 656.070 C 612.636 657.075,616.504 659.045,618.344 660.449 C 620.183 661.852,622.014 663.000,622.411 663.000 C 622.808 663.000,624.566 664.081,626.317 665.403 C 630.705 668.715,648.802 677.059,657.046 679.571 C 659.757 680.397,662.424 682.075,663.656 683.728 C 666.215 687.165,675.000 693.545,675.000 691.967 C 675.000 690.696,682.472 694.706,687.891 698.885 C 689.756 700.323,693.886 703.313,697.069 705.528 C 700.251 707.743,704.125 710.776,705.678 712.267 C 707.230 713.759,711.200 717.251,714.500 720.029 C 717.800 722.807,722.376 726.857,724.670 729.030 C 727.296 731.518,729.006 732.521,729.289 731.740 C 729.909 730.029,741.632 736.048,747.209 740.940 C 749.569 743.011,755.707 746.909,760.850 749.602 C 765.992 752.296,772.196 756.240,774.635 758.366 C 779.618 762.709,788.651 766.000,795.589 766.000 C 799.627 766.000,800.000 765.789,800.000 763.500 C 800.000 761.286,799.571 760.994,796.250 760.952 C 794.188 760.926,791.096 760.138,789.380 759.202 C 787.664 758.266,782.714 755.680,778.380 753.456 C 774.046 751.231,766.000 746.020,760.500 741.876 C 755.000 737.731,748.949 733.723,747.054 732.968 C 745.159 732.213,742.173 730.335,740.419 728.794 C 738.664 727.254,735.599 725.312,733.606 724.480 C 729.944 722.950,721.832 716.460,714.500 709.196 C 712.300 707.017,709.417 704.677,708.093 703.998 C 706.770 703.318,702.350 700.003,698.271 696.631 C 694.193 693.259,689.623 689.495,688.116 688.267 C 686.609 687.038,682.704 685.221,679.438 684.228 C 674.933 682.858,673.189 681.775,672.210 679.742 C 671.192 677.627,669.469 676.629,664.050 675.015 C 660.007 673.811,656.217 671.945,654.840 670.482 C 653.486 669.042,649.648 667.133,645.730 665.949 C 641.827 664.770,637.494 662.617,635.500 660.866 C 633.598 659.196,629.262 656.988,625.864 655.959 C 622.301 654.880,618.377 652.842,616.593 651.142 C 614.587 649.231,610.514 647.257,605.000 645.521 C 600.325 644.049,594.833 641.978,592.795 640.918 C 590.757 639.859,584.907 637.607,579.795 635.915 C 574.683 634.223,568.823 631.751,566.774 630.421 C 562.477 627.633,559.542 623.637,560.313 621.627 C 560.606 620.863,559.818 618.722,558.562 616.869 C 555.940 613.000,553.000 603.625,553.000 599.131 C 553.000 594.939,555.341 593.941,563.634 594.596 C 570.055 595.104,570.371 595.035,568.509 593.533 C 566.729 592.097,566.547 590.895,566.790 582.176 C 566.980 575.348,566.600 571.116,565.522 568.061 C 564.675 565.661,563.697 561.178,563.349 558.099 C 563.001 555.019,561.834 550.250,560.755 547.500 C 559.485 544.264,558.607 538.965,558.265 532.482 C 557.809 523.842,557.971 522.269,559.444 521.046 C 561.760 519.125,562.583 520.601,563.445 528.216 C 564.188 534.781,565.548 539.103,567.192 540.119 C 567.779 540.482,568.616 544.694,569.053 549.479 C 569.840 558.120,570.370 559.964,571.686 558.647 C 572.940 557.393,572.278 545.391,570.763 541.919 C 569.943 540.038,568.812 535.529,568.251 531.898 C 567.638 527.935,565.741 522.340,563.504 517.898 C 560.128 511.196,559.709 509.465,559.053 499.500 C 558.334 488.584,556.644 482.474,553.328 478.810 C 552.451 477.841,551.353 477.282,550.890 477.568 C 550.426 477.855,550.286 483.699,550.578 490.555 C 551.043 501.443,550.905 503.099,549.488 503.643 C 548.596 503.985,547.349 503.749,546.718 503.118 C 543.956 500.356,544.350 475.637,547.183 473.888 C 549.030 472.748,549.766 458.577,549.902 421.500 L 550.015 390.500 554.802 381.000 C 557.435 375.775,562.214 368.238,565.422 364.250 C 571.178 357.096,571.317 357.000,575.980 357.000 L 580.705 357.000 581.385 346.494 C 582.076 335.804,581.342 332.000,578.587 332.000 C 577.849 332.000,576.679 332.681,575.988 333.514 M520.664 354.264 C 519.199 357.160,518.000 360.126,518.000 360.857 C 518.000 361.587,517.100 363.329,516.000 364.727 C 513.620 367.753,513.445 370.294,515.500 372.000 C 516.325 372.685,517.000 374.779,517.000 376.655 C 517.000 381.746,519.452 386.665,522.872 388.434 C 524.538 389.295,526.277 390.000,526.738 390.000 C 528.534 390.000,527.753 385.951,525.633 384.272 C 522.638 381.902,521.932 379.725,522.976 376.083 C 523.454 374.416,523.543 373.093,523.173 373.144 C 522.803 373.195,521.457 373.184,520.183 373.118 C 517.679 372.990,517.729 371.904,520.538 365.500 C 521.262 363.850,522.166 360.475,522.548 358.000 C 522.930 355.525,523.421 352.488,523.640 351.250 C 524.247 347.825,523.579 348.502,520.664 354.264 M476.626 352.080 C 475.071 353.303,472.912 356.373,471.828 358.902 C 470.744 361.431,469.134 364.299,468.251 365.275 C 467.157 366.484,466.427 369.987,465.959 376.275 C 465.332 384.698,465.474 385.902,467.591 390.127 C 468.866 392.673,470.446 396.948,471.102 399.627 C 471.758 402.307,473.075 406.075,474.028 408.000 C 474.981 409.925,476.079 413.412,476.468 415.748 C 477.220 420.267,477.254 420.227,471.679 421.453 C 469.103 422.020,468.916 422.354,469.530 425.287 C 469.900 427.054,471.146 430.525,472.298 433.000 C 473.451 435.475,474.356 438.058,474.310 438.739 C 474.264 439.421,474.616 439.737,475.094 439.442 C 475.571 439.147,476.251 440.718,476.605 442.932 C 477.935 451.247,482.775 452.669,481.643 444.412 C 481.317 442.033,481.403 439.869,481.834 439.603 C 482.265 439.336,483.867 440.442,485.394 442.059 C 486.920 443.677,488.636 445.000,489.207 445.000 C 489.827 445.000,489.738 445.611,488.986 446.517 C 488.294 447.351,487.727 449.866,487.727 452.106 C 487.727 455.722,487.130 456.749,482.391 461.283 C 479.455 464.090,477.218 466.552,477.419 466.752 C 477.620 466.953,476.972 469.341,475.978 472.059 C 473.903 477.736,474.187 478.467,476.636 473.750 C 477.618 471.857,478.506 471.043,478.761 471.800 C 479.002 472.515,477.953 474.990,476.430 477.300 C 474.906 479.610,474.411 480.882,475.330 480.128 C 476.248 479.373,477.000 479.090,477.000 479.500 C 477.000 479.910,477.675 479.685,478.500 479.000 C 479.443 478.217,480.000 476.014,480.000 473.069 C 480.000 468.087,481.939 464.226,483.848 465.406 C 484.482 465.798,485.000 467.441,485.000 469.059 C 485.000 470.677,485.450 472.000,486.000 472.000 C 486.550 472.000,487.000 472.627,487.000 473.393 C 487.000 474.159,487.608 475.019,488.350 475.304 C 489.125 475.601,489.970 478.096,490.332 481.155 C 490.679 484.088,491.422 486.641,491.982 486.827 C 495.766 488.089,489.533 491.000,483.048 491.000 C 479.016 491.000,476.940 491.778,470.845 495.572 C 464.217 499.697,463.029 500.101,458.675 499.711 C 452.739 499.180,450.306 497.165,451.931 494.128 C 452.551 492.971,454.282 491.757,455.779 491.431 C 460.666 490.365,464.000 488.782,467.782 485.730 L 471.500 482.730 468.500 483.425 C 466.850 483.808,464.232 484.375,462.682 484.684 L 459.864 485.247 461.932 481.388 C 463.069 479.266,464.000 476.090,464.000 474.330 C 464.000 470.517,465.440 466.417,467.504 464.353 C 468.658 463.199,469.004 463.159,469.015 464.179 C 469.027 465.155,469.284 465.108,470.000 464.000 C 471.814 461.192,471.107 455.442,468.512 451.898 C 467.143 450.029,464.256 445.003,462.097 440.729 C 457.533 431.696,452.889 426.000,450.090 426.000 C 449.005 426.000,447.840 425.550,447.500 425.000 C 447.160 424.450,446.245 424.000,445.466 424.000 C 443.644 424.000,444.986 427.792,448.409 432.318 C 449.733 434.068,451.762 438.401,452.918 441.947 C 454.075 445.492,455.867 449.317,456.902 450.447 C 460.106 453.943,461.126 461.579,459.173 467.460 C 457.917 471.243,457.062 472.426,455.743 472.204 C 454.605 472.013,453.625 472.856,452.965 474.593 C 451.475 478.510,452.487 478.667,456.077 475.077 C 457.819 473.335,459.485 472.152,459.780 472.446 C 460.075 472.741,460.920 472.481,461.658 471.869 C 462.714 470.993,463.000 471.241,463.000 473.033 C 463.000 474.508,460.780 477.487,456.696 481.491 C 451.081 486.997,449.635 487.862,443.446 489.420 C 439.626 490.382,434.925 491.863,433.000 492.711 C 431.075 493.558,427.025 494.824,424.000 495.523 C 408.331 499.142,408.553 499.025,408.000 504.000 C 407.690 506.794,407.193 508.026,406.691 507.250 C 405.590 505.548,403.000 505.666,403.000 507.418 C 403.000 508.199,404.688 509.857,406.750 511.103 C 408.813 512.350,411.772 514.411,413.327 515.685 C 415.831 517.736,421.000 518.921,421.000 517.444 C 421.000 517.138,419.555 515.568,417.789 513.955 C 415.465 511.831,414.880 510.720,415.672 509.928 C 417.231 508.369,430.553 509.318,435.823 511.363 C 440.035 512.997,440.324 512.976,447.061 510.546 C 453.270 508.306,454.944 508.116,463.467 508.675 L 472.959 509.299 477.982 504.115 L 483.005 498.932 489.645 499.177 C 495.960 499.410,496.412 499.271,498.892 496.345 C 501.855 492.849,510.463 488.695,513.046 489.515 C 514.152 489.866,516.058 488.806,518.383 486.548 C 521.559 483.464,522.000 482.444,522.000 478.187 C 522.000 474.114,522.378 473.136,524.361 472.074 C 525.660 471.379,527.969 468.203,529.492 465.017 C 531.792 460.205,532.146 458.458,531.582 454.699 C 531.151 451.824,531.512 447.174,532.572 441.940 C 534.965 430.134,533.216 418.907,528.578 416.300 C 527.795 415.860,524.391 412.843,521.012 409.596 C 515.535 404.332,514.891 403.303,515.074 400.096 C 515.187 398.118,514.946 395.150,514.539 393.500 C 514.132 391.850,513.374 388.799,512.853 386.720 C 511.156 379.943,510.000 383.868,510.000 396.404 C 510.000 407.037,510.246 408.913,511.829 410.345 C 512.835 411.255,514.106 412.000,514.654 412.000 C 515.203 412.000,516.742 413.180,518.076 414.623 C 519.409 416.065,522.904 419.035,525.843 421.223 C 531.055 425.103,531.173 425.301,530.684 429.350 C 529.857 436.191,526.949 445.410,525.168 446.836 C 523.991 447.779,521.293 448.049,516.000 447.755 C 508.070 447.314,503.762 445.671,499.586 441.495 C 498.214 440.123,496.006 439.000,494.680 439.000 C 487.964 439.000,482.336 429.021,481.427 415.500 C 481.095 410.550,480.202 404.475,479.443 402.000 C 478.685 399.525,477.590 394.458,477.011 390.740 C 476.432 387.022,475.069 382.522,473.983 380.740 C 471.276 376.300,471.494 372.945,474.935 366.129 C 476.549 362.932,477.724 359.457,477.545 358.408 C 477.367 357.359,477.875 355.460,478.674 354.189 C 480.874 350.688,479.801 349.582,476.626 352.080 M431.000 363.500 C 427.975 364.831,423.814 365.938,421.753 365.960 C 416.819 366.013,410.351 371.611,409.406 376.648 C 409.022 378.695,407.783 380.751,406.378 381.672 C 404.669 382.792,404.023 384.112,404.082 386.365 L 404.163 389.500 405.574 386.275 C 407.128 382.724,414.083 375.157,418.000 372.757 C 419.375 371.914,422.280 370.911,424.455 370.528 C 426.631 370.146,429.703 368.745,431.282 367.416 C 435.226 364.098,437.565 364.375,442.539 368.750 C 451.045 376.232,455.862 380.000,456.920 380.000 C 458.590 380.000,458.202 378.493,456.024 376.521 C 454.937 375.538,454.249 374.406,454.496 374.006 C 454.921 373.320,444.897 364.912,440.522 362.285 C 437.802 360.651,437.341 360.710,431.000 363.500 M571.000 368.571 C 571.000 370.389,572.613 372.187,575.748 373.865 C 577.946 375.041,577.947 375.053,575.977 377.023 C 573.515 379.485,573.509 380.470,575.938 384.400 C 577.618 387.117,577.858 389.268,577.739 400.518 C 577.655 408.459,578.033 414.265,578.714 415.471 C 579.726 417.263,579.883 417.128,580.453 413.971 C 582.381 403.298,581.090 379.627,578.339 375.222 C 577.557 373.969,577.177 372.523,577.495 372.008 C 578.242 370.799,574.454 367.000,572.500 367.000 C 571.675 367.000,571.000 367.707,571.000 368.571 M207.400 397.781 C 203.930 400.048,203.165 410.265,206.016 416.259 C 207.110 418.556,207.097 419.450,205.942 421.609 C 204.707 423.915,204.753 424.346,206.358 425.520 C 207.832 426.598,208.834 426.607,211.831 425.570 C 216.290 424.028,217.100 421.458,213.626 419.876 C 210.266 418.344,209.841 417.063,209.118 406.281 C 208.692 399.921,208.159 397.285,207.400 397.781 M287.911 447.990 C 287.037 448.501,284.123 449.412,281.436 450.014 C 278.749 450.616,274.550 452.435,272.104 454.055 C 268.301 456.573,266.632 457.017,260.579 457.115 C 251.071 457.270,250.732 457.322,250.275 458.682 C 249.750 460.246,252.481 461.600,258.000 462.510 C 260.475 462.918,264.525 464.295,267.000 465.570 C 269.475 466.844,272.850 468.190,274.500 468.561 C 276.150 468.931,279.075 470.459,281.000 471.955 C 282.925 473.451,285.625 475.272,287.000 476.002 C 288.375 476.731,293.234 479.785,297.798 482.787 C 302.913 486.153,309.012 489.146,313.700 490.593 C 317.883 491.883,322.948 494.078,324.956 495.470 C 329.112 498.350,331.000 498.672,331.000 496.500 C 331.000 494.515,331.684 494.607,334.727 497.000 C 336.126 498.100,338.447 499.012,339.885 499.027 C 342.275 499.052,350.779 505.554,349.758 506.576 C 348.270 508.063,342.107 507.543,339.022 505.668 C 337.109 504.506,333.284 503.230,330.522 502.834 C 322.219 501.640,313.466 499.350,310.908 497.700 C 307.671 495.612,298.618 493.471,286.500 491.926 C 281.000 491.225,275.612 490.055,274.527 489.326 C 271.875 487.543,265.766 487.651,261.218 489.561 C 257.949 490.934,257.718 491.246,259.303 492.141 C 260.537 492.838,262.083 492.818,264.202 492.079 C 270.704 489.813,271.832 490.403,284.655 502.774 C 311.211 528.394,309.481 527.005,314.768 526.956 C 317.371 526.932,321.300 526.205,323.500 525.341 C 330.683 522.520,352.466 514.880,353.875 514.688 C 354.631 514.584,356.138 516.188,357.223 518.250 C 358.308 520.313,359.789 522.000,360.514 522.000 C 361.239 522.000,363.783 520.164,366.166 517.921 C 368.550 515.677,373.313 512.556,376.750 510.984 C 380.188 509.412,383.000 507.941,383.000 507.716 C 383.000 506.053,379.443 500.768,377.674 499.803 C 376.421 499.120,372.259 498.704,367.850 498.822 C 359.136 499.055,356.084 498.159,351.307 493.965 C 349.450 492.334,347.246 491.000,346.410 491.000 C 345.574 491.000,342.842 490.067,340.338 488.926 L 335.786 486.853 333.854 488.926 C 332.791 490.067,331.602 490.984,331.211 490.965 C 329.147 490.862,325.263 487.693,320.821 482.488 C 316.464 477.381,315.918 476.252,316.446 473.436 C 316.948 470.761,316.426 469.399,313.348 465.359 C 307.938 458.257,299.151 449.961,295.363 448.378 C 291.539 446.781,290.107 446.706,287.911 447.990 M526.066 454.035 C 527.442 454.772,528.000 456.136,528.000 458.763 C 528.000 461.990,527.234 463.173,521.935 468.138 C 518.054 471.774,515.984 474.469,516.185 475.624 C 516.374 476.705,515.799 477.571,514.750 477.787 C 513.672 478.008,513.000 477.542,513.000 476.573 C 513.000 474.216,512.387 474.552,506.711 480.027 C 499.029 487.438,495.833 487.692,494.475 481.000 C 494.196 479.625,493.487 476.700,492.901 474.500 C 490.066 463.870,490.759 461.440,497.322 459.003 C 499.070 458.354,501.850 457.085,503.500 456.183 C 508.304 453.558,522.627 452.195,526.066 454.035 M295.841 457.514 C 300.888 460.049,306.000 465.051,306.000 467.454 C 306.000 468.170,305.314 469.325,304.474 470.021 C 303.235 471.050,301.995 470.979,297.860 469.644 C 295.061 468.740,292.342 468.000,291.818 468.000 C 291.295 468.000,289.392 466.875,287.589 465.500 C 285.786 464.125,283.362 463.000,282.203 463.000 C 279.841 463.000,275.000 461.018,275.000 460.052 C 275.000 459.369,286.462 455.408,289.168 455.155 C 290.085 455.070,293.088 456.131,295.841 457.514 M450.426 497.668 C 451.227 499.755,450.657 500.425,445.527 503.431 C 441.152 505.995,437.358 506.169,434.487 503.937 C 433.930 503.503,431.680 502.989,429.487 502.793 L 425.500 502.438 430.500 501.683 C 433.250 501.268,438.154 499.634,441.397 498.052 C 447.443 495.102,449.409 495.019,450.426 497.668 M301.210 500.986 C 302.150 500.994,304.526 502.736,306.489 504.859 C 308.453 506.981,311.584 509.538,313.448 510.542 C 316.732 512.311,317.025 512.309,323.012 510.496 C 328.584 508.809,329.595 508.767,333.344 510.063 C 336.727 511.233,337.500 511.965,337.500 514.000 C 337.500 516.262,337.142 516.479,333.747 516.280 C 331.341 516.138,328.346 516.936,325.399 518.503 C 319.310 521.740,314.930 522.462,310.415 520.972 C 306.198 519.580,288.699 504.403,289.284 502.645 C 289.739 501.278,294.689 500.036,297.500 500.583 C 298.600 500.798,300.269 500.979,301.210 500.986 M487.528 504.912 C 486.771 507.296,477.934 515.955,474.331 517.842 C 470.694 519.748,461.564 518.839,456.041 516.021 L 451.726 513.820 449.113 516.465 C 446.569 519.041,446.551 519.149,448.424 520.543 C 449.482 521.330,451.957 522.210,453.924 522.497 C 455.891 522.784,459.525 523.749,462.000 524.640 C 464.475 525.531,468.565 526.465,471.089 526.716 C 475.172 527.121,475.946 526.859,478.104 524.336 C 479.438 522.776,482.236 520.220,484.322 518.655 C 489.192 515.003,494.212 505.377,491.982 503.968 C 489.677 502.510,488.190 502.826,487.528 504.912 M525.297 509.250 C 524.169 510.488,522.742 513.075,522.126 515.000 C 521.510 516.925,518.540 522.269,515.525 526.875 C 512.510 531.482,509.783 536.882,509.464 538.875 C 508.281 546.277,507.877 547.052,503.899 549.564 C 501.525 551.062,500.045 552.674,500.339 553.440 C 500.615 554.161,500.215 555.958,499.450 557.434 C 498.122 559.994,498.158 560.085,500.241 559.423 C 501.442 559.042,503.240 557.694,504.237 556.426 C 506.604 553.416,511.194 551.072,518.000 549.395 C 523.379 548.070,523.402 548.049,519.059 548.450 C 512.146 549.089,509.884 544.744,514.309 539.327 C 518.062 534.732,520.676 529.628,522.481 523.374 C 523.413 520.143,525.486 515.510,527.088 513.079 C 528.690 510.647,530.000 508.284,530.000 507.829 C 530.000 506.219,527.323 507.028,525.297 509.250 M400.000 519.391 C 400.000 520.942,400.680 524.837,401.512 528.046 C 402.659 532.471,403.122 541.684,403.432 566.190 C 403.657 583.961,404.166 602.858,404.564 608.184 L 405.286 617.868 402.220 620.934 C 399.515 623.639,398.482 624.000,393.449 624.000 C 388.979 624.000,386.634 623.367,382.622 621.078 C 379.805 619.471,374.492 617.027,370.815 615.647 C 365.234 613.553,363.942 613.364,362.996 614.505 C 360.505 617.506,365.510 621.953,372.984 623.379 C 378.380 624.408,384.000 628.559,384.000 631.514 C 384.000 632.881,383.600 634.000,383.112 634.000 C 382.623 634.000,380.170 636.025,377.659 638.500 C 373.911 642.195,372.434 643.000,369.407 643.000 C 367.379 643.000,363.781 643.968,361.413 645.151 C 357.367 647.171,356.910 647.206,353.856 645.727 C 351.038 644.362,350.248 644.338,347.916 645.543 C 342.689 648.246,330.000 664.596,330.000 668.628 C 330.000 670.004,332.795 671.245,334.090 670.444 C 334.591 670.135,335.000 669.282,335.000 668.548 C 335.000 667.814,335.606 666.982,336.346 666.698 C 337.427 666.283,337.728 668.820,337.874 679.603 C 337.985 687.700,337.627 693.829,336.972 695.052 C 336.375 696.167,335.686 702.574,335.441 709.290 C 335.195 716.005,334.743 722.700,334.436 724.166 C 334.129 725.633,334.413 728.783,335.067 731.166 C 335.721 733.550,336.384 736.850,336.541 738.500 C 337.470 748.284,338.994 756.082,340.561 759.076 C 342.866 763.481,345.801 773.605,347.350 782.500 C 348.021 786.350,348.918 790.063,349.344 790.750 C 350.869 793.212,352.907 792.011,353.586 788.250 C 353.959 786.188,354.690 783.675,355.211 782.667 C 355.891 781.353,355.712 780.339,354.580 779.088 C 352.602 776.903,352.610 776.533,354.681 774.462 C 356.234 772.909,356.237 772.712,354.721 771.864 C 353.819 771.359,352.781 769.270,352.416 767.223 C 352.050 765.175,350.129 760.800,348.146 757.500 C 345.372 752.884,344.399 750.001,343.928 745.000 C 343.485 740.306,342.576 737.418,340.655 734.606 C 338.622 731.631,338.258 730.394,339.113 729.364 C 339.836 728.492,339.991 726.084,339.550 722.556 C 338.967 717.887,339.179 716.677,341.018 714.190 C 342.925 711.610,343.110 710.370,342.655 703.174 C 341.967 692.280,344.476 683.623,346.486 689.956 C 346.828 691.032,348.510 693.093,350.225 694.536 C 352.952 696.830,354.077 697.119,359.174 696.830 C 362.380 696.649,365.003 696.737,365.002 697.026 C 365.001 697.316,366.854 697.376,369.120 697.160 C 371.469 696.936,372.723 696.447,372.037 696.023 C 370.659 695.171,372.934 694.000,375.966 694.000 C 377.238 694.000,378.413 692.311,379.963 688.250 C 383.160 679.876,383.437 679.508,386.609 679.418 C 388.199 679.374,390.704 678.996,392.175 678.579 C 394.586 677.896,394.882 678.101,395.175 680.660 C 395.451 683.070,395.879 683.439,398.000 683.094 C 399.375 682.871,402.075 682.646,404.000 682.594 C 407.121 682.510,407.709 682.928,409.432 686.458 C 410.773 689.206,411.615 693.944,412.185 701.958 C 413.080 714.531,413.475 716.442,414.983 715.511 C 415.555 715.157,415.889 710.975,415.766 705.697 C 415.648 700.639,415.849 695.255,416.213 693.733 C 416.672 691.810,416.116 689.311,414.391 685.543 C 410.071 676.106,410.399 674.048,416.230 674.015 C 418.400 674.003,419.365 674.794,420.936 677.874 C 423.324 682.555,428.500 687.129,430.527 686.351 C 432.637 685.542,432.409 684.837,428.596 680.383 C 426.724 678.196,425.037 675.303,424.846 673.953 L 424.500 671.500 407.500 671.722 C 379.454 672.089,381.178 671.980,383.763 673.226 C 385.975 674.293,385.903 674.437,380.597 679.535 C 377.611 682.404,374.237 686.575,373.100 688.803 C 370.656 693.594,368.600 694.430,361.462 693.538 C 354.912 692.720,352.484 690.527,356.456 689.017 C 357.927 688.457,359.283 688.000,359.469 688.000 C 360.750 688.000,367.635 680.689,370.051 676.763 L 372.982 672.000 370.070 672.000 C 367.667 672.000,367.047 671.491,366.518 669.084 C 365.939 666.447,363.405 664.262,362.257 665.409 C 362.006 665.661,362.309 667.406,362.930 669.289 C 364.260 673.316,363.413 676.168,359.509 680.806 C 357.475 683.224,356.011 684.000,353.483 684.000 C 348.037 684.000,347.000 682.088,347.000 672.051 C 347.000 661.803,347.883 660.395,353.718 661.342 C 356.526 661.797,358.689 661.321,362.680 659.368 C 367.029 657.240,368.770 656.907,372.721 657.447 C 381.991 658.713,402.072 659.185,403.301 658.165 C 403.964 657.615,408.383 657.191,413.121 657.223 C 417.859 657.255,422.265 656.954,422.912 656.554 C 423.559 656.155,424.759 656.385,425.579 657.065 C 426.766 658.051,428.211 658.029,432.670 656.959 C 438.095 655.658,438.329 655.688,440.135 657.919 C 442.155 660.412,442.592 669.225,441.132 678.000 C 440.397 682.415,434.593 691.449,431.255 693.372 C 430.422 693.852,427.222 693.949,424.144 693.587 L 418.547 692.929 420.864 695.088 C 422.589 696.695,424.551 697.279,428.544 697.373 C 433.618 697.493,434.158 697.257,438.536 693.000 C 443.704 687.976,446.490 683.233,447.530 677.692 C 448.518 672.427,449.847 672.192,450.639 677.142 C 451.254 680.990,451.397 681.160,452.198 678.993 C 452.743 677.521,452.679 675.631,452.032 674.054 C 451.456 672.649,451.067 668.350,451.169 664.500 C 451.271 660.650,450.833 656.532,450.195 655.350 C 448.297 651.827,451.471 651.604,456.071 654.937 C 459.627 657.512,467.425 659.908,468.560 658.773 C 468.794 658.539,463.026 655.353,455.743 651.693 C 446.192 646.894,440.688 644.757,436.000 644.027 C 428.372 642.839,416.993 642.673,417.015 643.750 C 417.062 646.017,419.341 646.896,427.003 647.603 C 431.676 648.034,434.600 648.562,433.500 648.777 C 432.400 648.993,430.952 649.872,430.282 650.732 C 428.919 652.481,424.237 652.709,411.552 651.644 C 407.180 651.277,403.293 650.474,402.914 649.860 C 401.949 648.300,400.000 649.732,400.000 652.000 C 400.000 654.805,398.788 655.091,393.132 653.624 C 390.309 652.892,388.000 652.677,388.000 653.146 C 388.000 654.494,384.692 654.082,382.559 652.468 C 381.491 651.661,379.654 651.000,378.476 651.000 C 373.674 651.000,374.586 647.356,379.624 646.411 C 382.524 645.867,383.446 646.189,385.583 648.495 C 386.973 649.995,388.391 650.943,388.732 650.601 C 389.074 650.259,388.150 648.722,386.677 647.185 C 385.205 645.648,384.000 643.891,384.000 643.280 C 384.000 641.471,394.069 634.000,396.508 634.000 C 399.232 634.000,401.249 636.187,400.449 638.272 C 399.714 640.187,401.225 641.143,405.666 641.573 C 407.577 641.758,410.031 642.192,411.118 642.538 C 413.825 643.397,416.422 641.214,414.890 639.367 C 414.001 638.296,414.150 638.000,415.578 638.000 C 419.594 638.000,414.839 635.539,409.829 635.025 C 403.516 634.378,401.606 632.198,404.526 628.972 C 407.814 625.338,414.966 621.000,417.668 621.000 C 420.842 621.000,428.000 614.154,428.000 611.118 C 428.000 607.910,423.745 608.407,419.531 612.107 C 416.311 614.934,408.453 617.787,407.237 616.571 C 406.963 616.296,407.211 614.211,407.788 611.937 C 408.506 609.110,408.526 604.748,407.851 598.151 C 407.029 590.106,407.159 587.003,408.631 579.500 C 410.565 569.644,410.730 554.127,409.066 538.601 C 408.109 529.667,405.189 521.772,401.461 518.036 C 400.179 516.751,400.000 516.917,400.000 519.391 M286.319 579.365 C 287.231 580.757,287.699 582.621,287.359 583.507 C 286.972 584.516,287.795 586.220,289.559 588.061 C 291.109 589.680,292.515 592.015,292.683 593.252 C 293.332 598.040,294.097 600.058,295.042 599.474 C 296.873 598.342,295.670 588.341,293.038 582.823 C 290.934 578.409,290.001 577.443,287.581 577.167 C 284.673 576.836,284.668 576.845,286.319 579.365 M414.325 582.584 C 411.999 584.910,411.803 585.683,412.362 590.334 C 412.703 593.175,412.993 596.850,413.007 598.500 C 413.020 600.150,413.474 602.175,414.015 603.000 C 415.645 605.483,416.967 602.310,416.985 595.872 C 417.006 588.177,418.388 587.226,424.196 590.909 C 430.489 594.901,432.949 602.189,429.345 606.171 C 427.805 607.873,427.805 608.000,429.345 608.000 C 430.255 608.000,431.000 607.325,431.000 606.500 C 431.000 603.512,433.119 605.119,436.772 610.878 C 438.822 614.111,441.036 617.599,441.691 618.628 C 442.771 620.325,442.888 620.227,442.941 617.583 C 442.974 615.979,441.399 611.753,439.442 608.192 C 436.835 603.450,435.874 600.473,435.847 597.060 C 435.805 591.548,434.250 589.325,427.920 585.722 C 425.401 584.288,422.759 582.414,422.048 581.558 C 420.149 579.270,417.255 579.654,414.325 582.584 M281.535 600.000 C 281.976 601.375,282.245 603.981,282.134 605.790 C 281.961 608.600,282.354 609.227,284.826 610.089 C 287.512 611.026,287.763 611.559,288.320 617.521 C 288.650 621.053,289.613 625.284,290.460 626.922 C 291.307 628.560,292.657 632.718,293.460 636.160 C 294.483 640.545,295.773 643.216,297.767 645.080 C 299.333 646.543,302.521 650.898,304.853 654.757 C 310.373 663.893,312.039 665.370,315.876 664.527 C 317.776 664.110,318.702 663.386,318.386 662.564 C 318.104 661.830,318.782 661.029,319.943 660.725 C 321.075 660.429,322.000 660.595,322.000 661.093 C 322.000 661.590,323.800 660.251,326.000 658.116 C 328.200 655.981,330.000 653.889,330.000 653.467 C 330.000 652.296,339.965 643.000,341.221 643.000 C 342.427 643.000,351.698 637.313,353.820 635.272 C 356.500 632.695,363.500 632.267,363.500 634.680 C 363.500 636.771,364.655 637.058,370.361 636.387 C 375.270 635.810,375.777 635.557,374.252 634.443 C 373.289 633.738,372.500 632.576,372.500 631.861 C 372.500 630.045,358.396 627.709,354.815 628.933 C 353.338 629.438,349.808 631.686,346.969 633.930 C 344.130 636.174,340.693 638.290,339.331 638.632 C 337.969 638.974,336.455 640.303,335.967 641.586 C 335.480 642.869,333.375 644.789,331.290 645.853 C 329.206 646.918,326.016 649.636,324.203 651.894 C 321.759 654.938,320.182 656.000,318.108 656.000 C 315.308 656.000,312.000 653.381,312.000 651.165 C 312.000 650.517,310.889 649.021,309.531 647.840 C 308.010 646.518,306.042 642.585,304.405 637.597 C 302.943 633.144,300.926 628.595,299.923 627.489 C 298.920 626.382,296.659 621.523,294.899 616.690 C 292.614 610.418,291.303 608.054,290.318 608.431 C 289.500 608.745,288.480 607.952,287.809 606.480 C 287.188 605.116,286.301 604.000,285.839 604.000 C 285.378 604.000,285.000 603.395,285.000 602.655 C 285.000 601.915,284.040 600.453,282.867 599.405 C 280.743 597.508,280.738 597.510,281.535 600.000 M252.065 606.944 C 250.803 608.039,248.472 609.509,246.885 610.211 C 245.298 610.914,244.000 612.011,244.000 612.650 C 244.000 614.287,247.524 613.184,249.590 610.900 C 251.890 608.359,254.404 608.500,255.824 611.250 C 257.794 615.065,260.000 622.130,260.000 624.626 C 260.000 625.932,260.430 627.000,260.955 627.000 C 261.480 627.000,262.205 628.575,262.566 630.500 C 263.598 636.002,265.846 634.976,265.306 629.250 C 264.360 619.223,262.827 613.928,259.675 609.808 C 255.787 604.725,254.975 604.420,252.065 606.944 M275.661 625.441 C 274.665 628.038,274.866 631.466,276.087 632.687 C 276.870 633.470,276.675 634.357,275.392 635.855 C 272.187 639.598,272.603 642.420,277.129 647.649 C 279.983 650.946,281.967 652.395,283.402 652.229 C 284.868 652.059,286.359 653.208,288.351 656.043 C 289.918 658.274,291.718 659.927,292.351 659.717 C 296.245 658.420,291.645 650.740,284.449 646.523 C 280.913 644.451,279.845 643.137,278.929 639.737 C 278.305 637.418,278.048 633.666,278.359 631.399 C 278.719 628.768,278.453 626.635,277.623 625.499 C 276.401 623.827,276.282 623.824,275.661 625.441 M491.434 627.750 C 491.101 629.263,490.237 632.088,489.512 634.028 C 487.508 639.392,486.883 644.427,486.683 656.802 C 486.506 667.709,486.561 668.028,488.250 665.941 C 489.567 664.314,490.000 661.933,490.000 656.323 C 490.000 652.223,490.492 647.949,491.093 646.825 C 492.056 645.026,494.986 629.580,494.996 626.250 C 495.004 623.797,492.027 625.051,491.434 627.750 M472.176 630.426 C 469.541 634.892,466.438 636.841,460.711 637.626 C 457.251 638.100,455.412 637.845,453.562 636.632 C 452.191 635.735,450.042 635.014,448.785 635.032 C 446.533 635.063,446.540 635.098,449.266 637.497 C 455.346 642.848,465.998 643.252,471.235 638.330 C 475.920 633.927,478.246 627.000,475.040 627.000 C 474.577 627.000,473.288 628.542,472.176 630.426 M25.442 635.082 C 23.824 637.327,21.032 641.040,19.238 643.332 C 17.443 645.624,15.193 648.850,14.238 650.500 C 13.282 652.150,9.687 656.388,6.250 659.917 C -0.652 667.002,-1.450 669.413,2.750 670.484 C 5.204 671.110,6.134 670.502,11.378 664.843 C 14.610 661.354,18.302 656.854,19.582 654.843 C 22.461 650.316,28.868 644.000,30.581 644.000 C 32.344 644.000,36.000 648.855,36.000 651.195 C 36.000 652.769,35.457 653.035,33.024 652.651 C 30.827 652.305,28.987 652.951,25.986 655.125 C 23.752 656.743,22.143 658.422,22.410 658.855 C 22.678 659.287,22.099 660.960,21.125 662.571 C 20.151 664.182,18.830 667.013,18.190 668.862 C 17.132 671.918,17.174 672.101,18.649 670.876 C 19.542 670.135,21.376 667.781,22.724 665.645 C 26.823 659.152,30.696 655.945,34.123 656.206 C 35.789 656.333,37.369 656.789,37.635 657.219 C 37.901 657.648,38.776 658.000,39.580 658.000 C 40.770 658.000,40.942 656.774,40.501 651.419 C 40.203 647.800,39.317 643.300,38.531 641.420 C 36.457 636.456,32.028 631.000,30.073 631.000 C 29.144 631.000,27.060 632.837,25.442 635.082 M59.667 647.667 C 58.514 648.820,58.924 650.774,61.500 656.406 C 62.875 659.412,64.000 662.807,64.000 663.949 C 64.000 665.092,64.418 666.809,64.928 667.764 C 65.957 669.690,69.009 679.412,68.985 680.688 C 68.976 681.135,68.529 680.825,67.991 680.000 C 67.007 678.489,67.456 685.523,68.694 691.000 L 69.259 693.500 70.184 690.500 C 71.434 686.445,71.217 660.308,69.900 656.250 C 69.320 654.462,68.174 653.000,67.355 653.000 C 66.300 653.000,66.058 653.609,66.527 655.085 C 67.171 657.113,67.118 657.123,64.594 655.470 C 61.896 653.702,60.924 649.013,63.250 648.985 C 64.083 648.974,64.000 648.646,63.000 648.000 C 61.211 646.844,60.555 646.778,59.667 647.667 M272.000 650.741 C 272.000 651.919,271.622 653.116,271.159 653.401 C 270.697 653.687,270.257 664.353,270.182 677.103 C 270.106 689.853,269.796 701.066,269.493 702.021 C 269.090 703.291,269.620 703.885,271.471 704.239 L 274.000 704.723 274.211 683.111 C 274.458 657.717,274.196 650.842,272.931 649.550 C 272.350 648.958,272.000 649.406,272.000 650.741 M514.769 674.750 C 513.921 675.712,512.088 678.776,510.694 681.559 C 509.300 684.341,506.324 689.382,504.080 692.760 C 500.163 698.657,499.007 702.000,500.884 702.000 C 502.309 702.000,509.000 694.137,509.000 692.462 C 509.000 690.878,511.551 686.276,513.430 684.473 C 514.873 683.087,519.000 675.366,519.000 674.052 C 519.000 672.402,516.469 672.820,514.769 674.750 M0.000 703.259 C 0.000 705.305,0.665 706.934,1.785 707.633 C 3.345 708.608,28.010 734.160,48.372 755.897 C 55.114 763.094,55.323 763.224,59.425 762.761 C 61.725 762.502,66.732 760.770,70.553 758.911 C 80.224 754.207,85.057 754.298,95.393 759.382 C 99.734 761.516,104.909 764.678,106.893 766.408 C 108.877 768.137,111.303 770.171,112.284 770.927 C 113.348 771.747,119.313 772.787,127.078 773.507 C 139.400 774.650,140.540 774.946,148.626 779.107 C 159.033 784.462,165.800 790.894,166.655 796.246 C 167.211 799.724,167.504 800.000,170.628 800.000 C 173.729 800.000,174.000 799.752,174.000 796.912 C 174.000 793.970,167.589 781.000,166.135 781.000 C 165.754 781.000,161.695 778.506,157.116 775.458 C 151.632 771.808,147.033 769.560,143.645 768.872 C 140.815 768.298,135.708 767.192,132.294 766.414 C 128.881 765.636,124.748 765.000,123.110 765.000 C 119.325 765.000,115.065 763.394,112.500 761.000 C 108.969 757.704,94.515 750.248,88.251 748.490 C 81.722 746.658,78.862 747.080,70.979 751.039 C 64.285 754.401,63.859 754.202,62.373 747.025 C 61.327 741.969,61.290 739.839,62.205 737.310 C 63.147 734.705,63.095 733.542,61.938 731.367 C 60.503 728.669,60.499 728.675,59.857 734.082 C 59.504 737.062,59.432 742.425,59.697 746.000 C 60.035 750.552,59.778 753.004,58.840 754.183 C 57.641 755.688,55.071 753.334,34.500 731.888 C 13.134 709.613,2.995 700.000,0.869 700.000 C 0.391 700.000,0.000 701.467,0.000 703.259 M315.636 708.052 C 315.986 712.942,317.058 718.395,318.182 721.000 C 319.251 723.475,320.333 727.493,320.588 729.929 C 320.843 732.365,321.908 737.315,322.955 740.929 C 324.002 744.543,325.136 749.188,325.475 751.250 C 325.813 753.313,326.534 755.000,327.077 755.000 C 328.207 755.000,328.353 754.560,329.818 746.744 C 330.835 741.318,330.763 740.854,328.565 738.655 C 326.094 736.184,325.023 731.120,324.781 720.750 C 324.691 716.914,324.234 715.000,323.407 715.000 C 322.725 715.000,321.966 715.563,321.720 716.250 C 320.854 718.674,319.817 716.084,318.993 709.446 C 318.527 705.688,317.472 702.043,316.596 701.168 C 315.177 699.749,315.088 700.388,315.636 708.052 M295.054 705.900 C 294.516 706.904,294.101 713.776,294.131 721.172 C 294.172 731.127,293.786 735.577,292.644 738.309 C 291.156 741.870,291.175 742.000,293.168 742.000 C 294.857 742.000,295.102 742.410,294.512 744.250 C 294.116 745.487,293.555 748.075,293.267 750.000 C 292.978 751.925,292.453 753.725,292.100 754.000 C 289.956 755.672,288.777 761.851,288.382 773.490 C 288.139 780.646,287.459 787.993,286.871 789.817 C 285.568 793.855,285.803 794.147,289.550 793.147 C 292.069 792.475,292.615 791.713,293.287 787.930 C 293.719 785.494,294.502 781.475,295.025 779.000 C 295.549 776.525,296.181 765.950,296.430 755.500 C 296.803 739.856,297.242 735.440,298.917 730.500 C 300.035 727.200,300.962 722.112,300.975 719.193 C 301.023 708.921,297.577 701.185,295.054 705.900 M491.218 711.750 C 489.614 719.026,487.146 725.038,484.447 728.246 C 483.101 729.845,482.000 732.190,482.000 733.456 C 482.000 736.132,477.448 746.658,475.137 749.323 C 474.268 750.326,473.017 753.026,472.356 755.323 C 469.976 763.605,467.141 770.423,465.616 771.538 C 464.761 772.164,462.678 776.971,460.988 782.221 C 459.298 787.472,457.034 792.565,455.957 793.539 C 454.881 794.513,454.000 796.365,454.000 797.655 C 454.000 799.490,454.544 800.000,456.500 800.000 C 457.894 800.000,459.000 799.421,459.000 798.690 C 459.000 797.969,460.668 794.032,462.707 789.940 C 464.747 785.848,466.292 781.893,466.141 781.150 C 465.990 780.408,466.990 778.103,468.363 776.028 C 469.735 773.954,472.291 768.632,474.041 764.203 C 475.998 759.251,477.685 756.326,478.422 756.608 C 479.726 757.109,482.530 745.426,482.168 741.000 C 481.995 738.891,484.163 734.438,488.984 727.000 C 489.518 726.175,490.433 723.587,491.016 721.250 C 491.660 718.673,492.652 717.000,493.539 717.000 C 494.535 717.000,495.000 715.913,495.000 713.582 C 495.000 711.702,495.273 709.452,495.607 708.582 C 496.034 707.469,495.629 707.000,494.239 707.000 C 492.698 707.000,492.036 708.041,491.218 711.750 M0.000 728.128 C 0.000 732.372,9.247 746.000,12.126 746.000 C 13.260 746.000,26.278 757.824,27.392 759.866 C 27.882 760.765,26.919 760.226,25.251 758.668 C 21.636 755.291,20.360 756.418,22.959 760.692 C 24.295 762.890,25.871 763.941,28.597 764.452 C 31.438 764.985,34.200 766.927,39.690 772.250 C 43.711 776.148,47.000 779.933,47.000 780.661 C 47.000 781.388,47.925 782.549,49.055 783.242 C 51.451 784.709,62.000 797.562,62.000 799.014 C 62.000 799.556,63.125 800.000,64.500 800.000 C 65.962 800.000,67.000 799.426,67.000 798.616 C 67.000 796.169,43.288 769.821,17.500 743.613 C 10.900 736.906,4.691 730.199,3.703 728.709 C 1.547 725.458,-0.000 725.216,0.000 728.128 M260.316 738.250 C 259.939 746.958,260.081 749.581,261.105 752.750 C 262.253 756.302,263.144 756.737,264.912 754.606 C 265.801 753.535,265.676 752.388,264.372 749.654 C 262.279 745.266,263.634 743.008,268.372 742.985 C 272.319 742.965,274.461 741.642,273.710 739.687 C 273.278 738.560,272.139 738.306,269.250 738.693 C 265.881 739.145,265.145 738.870,263.662 736.607 C 261.278 732.969,260.529 733.337,260.316 738.250 M445.060 743.714 C 444.357 746.896,442.964 751.533,441.964 754.017 C 440.835 756.821,440.299 760.130,440.551 762.743 C 440.846 765.811,440.299 768.246,438.533 771.726 C 437.108 774.534,436.478 776.870,437.004 777.399 C 438.390 778.792,442.989 775.256,443.080 772.727 C 443.123 771.502,443.236 767.723,443.330 764.330 C 443.464 759.449,443.972 757.658,445.759 755.756 C 448.301 753.051,451.358 742.705,450.456 739.861 C 449.792 737.769,448.008 737.328,447.985 739.250 C 447.973 740.221,447.787 740.213,447.153 739.214 C 446.628 738.387,445.881 739.994,445.060 743.714 M360.789 777.317 C 359.447 780.131,359.420 780.954,360.599 783.204 C 361.353 784.642,362.266 789.010,362.628 792.910 L 363.287 800.000 368.644 800.000 C 371.590 800.000,373.993 799.663,373.985 799.250 C 373.942 797.124,371.318 790.015,370.777 790.557 C 369.897 791.436,367.328 786.189,365.941 780.681 C 364.320 774.243,362.745 773.214,360.789 777.317 " stroke="none" fill="#000000" fill-rule="evenodd"/></svg>